<svg xmlns="http://www.w3.org/2000/svg" width="1024" height="500" viewBox="0 0 1024 500">
  <defs>
    <linearGradient id="bg" x1="0" x2="1" y1="0" y2="1">
      <stop offset="0" stop-color="#05060A"/>
      <stop offset="0.45" stop-color="#101827"/>
      <stop offset="1" stop-color="#2A1028"/>
    </linearGradient>
    <filter id="glow"><feGaussianBlur stdDeviation="5" result="b"/><feMerge><feMergeNode in="b"/><feMergeNode in="SourceGraphic"/></feMerge></filter>
  </defs>
  <rect width="1024" height="500" fill="url(#bg)"/>
  <path d="M0 352 C180 286 300 390 470 322 S770 242 1024 312 L1024 500 L0 500 Z" fill="#08111E"/>
  <g fill="#0B1220">
    <rect x="80" y="215" width="58" height="170"/><rect x="164" y="160" width="72" height="225"/>
    <rect x="264" y="235" width="52" height="150"/><rect x="350" y="120" width="82" height="265"/>
    <rect x="470" y="205" width="64" height="180"/><rect x="580" y="148" width="92" height="237"/>
    <rect x="720" y="232" width="55" height="153"/><rect x="830" y="170" width="80" height="215"/>
  </g>
  <g filter="url(#glow)">
    <text x="72" y="132" fill="#FFFFFF" font-family="Arial Black, sans-serif" font-size="72">NEON CARTEL</text>
    <text x="78" y="183" fill="#28E6FF" font-family="Arial, sans-serif" font-size="28">Buy low. Move fast. Survive the heat.</text>
    <path d="M70 278 L126 202 H154 L126 260 H178 L98 366 H70 L120 278 Z" fill="none" stroke="#28E6FF" stroke-width="8"/>
    <path d="M190 208 H282 L270 242 H226 L214 280 H258 L244 318 H202 L188 366 H144 Z" fill="none" stroke="#FF3FB4" stroke-width="8"/>
  </g>
  <rect x="618" y="86" width="330" height="270" rx="12" fill="#0A1020" stroke="#28E6FF" opacity="0.92"/>
  <text x="650" y="136" fill="#FDE047" font-family="Arial Black, sans-serif" font-size="30">MARKET SPIKE</text>
  <text x="650" y="184" fill="#FFFFFF" font-family="Arial, sans-serif" font-size="22">Pearl ▲ $2,940</text>
  <text x="650" y="224" fill="#FFFFFF" font-family="Arial, sans-serif" font-size="22">Prisms ◆ $4,870</text>
  <text x="650" y="264" fill="#FFFFFF" font-family="Arial, sans-serif" font-size="22">Moonshine ▼ $62</text>
  <text x="650" y="318" fill="#FF6B6B" font-family="Arial Black, sans-serif" font-size="24">HEAT 68%</text>
</svg>
