<svg xmlns="http://www.w3.org/2000/svg" width="1280" height="720" viewBox="0 0 1280 720">
  <rect width="1280" height="720" fill="#05060A"/>
  <rect x="20" y="20" width="285" height="310" rx="8" fill="#0A1020" stroke="#263348"/>
  <rect x="325" y="20" width="630" height="310" rx="8" fill="#101827" stroke="#28E6FF"/>
  <rect x="975" y="20" width="285" height="310" rx="8" fill="#0A1020" stroke="#263348"/>
  <rect x="20" y="350" width="220" height="350" rx="8" fill="#0A1020" stroke="#263348"/>
  <rect x="260" y="350" width="1000" height="350" rx="8" fill="#0A1020" stroke="#263348"/>
  <text x="52" y="70" fill="#FFFFFF" font-family="Arial Black" font-size="28">NOVA</text>
  <text x="52" y="118" fill="#28E6FF" font-family="Arial" font-size="18">Cash $500</text>
  <text x="52" y="154" fill="#FDE047" font-family="Arial" font-size="18">Risk 8%</text>
  <text x="360" y="82" fill="#FFFFFF" font-family="Arial Black" font-size="44">NEON HARBOR</text>
  <text x="360" y="125" fill="#28E6FF" font-family="Arial" font-size="22">Salt rain and holo-fog</text>
  <path d="M325 272 C460 210 560 320 690 246 S860 198 955 254" fill="none" stroke="#FF3FB4" stroke-width="4"/>
  <text x="998" y="64" fill="#FFFFFF" font-family="Arial Black" font-size="24">STREET FEED</text>
  <text x="285" y="398" fill="#FFFFFF" font-family="Arial Black" font-size="28">MARKET BOARD</text>
  <text x="52" y="398" fill="#FFFFFF" font-family="Arial Black" font-size="24">ACTIONS</text>
  <g font-family="Arial" font-size="22" fill="#E5E7EB">
    <text x="292" y="455">Pearl ▲ $2,120  Qty 12  Owned 0</text>
    <text x="292" y="510">Pulse ◆ $1,880  Qty 7  Owned 1</text>
    <text x="292" y="565">Moonshine ▼ $86  Qty 31  Owned 0</text>
    <text x="292" y="620">Prisms ■ $1,104  Qty 5  Owned 0</text>
  </g>
</svg>
